<svg width="2880" height="1752" viewBox="0 0 2880 1752" fill="none" xmlns="http://www.w3.org/2000/svg">
<g clip-path="url(#clip0_213_2)">
<path d="M909.8 951V813.4H889.4V808.6L909.8 806L918.6 801H923.4V858H924C925.067 855.467 926.733 852.933 929 850.4C931.267 847.733 934.067 845.533 937.4 843.8C940.733 841.933 944.533 841 948.8 841C955.467 841 961.067 843.267 965.6 847.8C970.133 852.2 973.533 858.333 975.8 866.2C978.2 874.067 979.4 883.133 979.4 893.4C979.4 904.6 978 914.733 975.2 923.8C972.4 932.733 968.333 939.867 963 945.2C957.667 950.4 951.133 953 943.4 953C938.6 953 934.467 952 931 950C927.533 948 924.733 945.533 922.6 942.6C920.6 939.533 919.2 936.667 918.4 934H916.4V951H909.8ZM943.4 946.6C949.667 946.6 954.667 944.333 958.4 939.8C962.133 935.133 964 928.267 964 919.2V871.8C964 863.667 962 857.867 958 854.4C954 850.933 949.467 849.2 944.4 849.2C939.867 849.2 936.067 850.4 933 852.8C930.067 855.067 927.8 857.867 926.2 861.2C924.733 864.533 923.8 867.733 923.4 870.8V919.2C923.4 929.2 925.333 936.267 929.2 940.4C933.067 944.533 937.8 946.6 943.4 946.6ZM1061.2 944.2V951H991V944.2H1015V853.4H994.6V848.6L1015 846L1023.8 841H1028.6V876.2H1029.2L1030.2 873.2C1033.27 864 1037.73 856.333 1043.6 850.2C1049.47 844.067 1056.47 841 1064.6 841C1069.67 841 1074 842.133 1077.6 844.4C1081.2 846.667 1083 849.933 1083 854.2C1083 856.733 1082.33 858.8 1081 860.4C1079.67 862 1077.6 862.8 1074.8 862.8C1071.47 862.8 1069 861.733 1067.4 859.6C1065.8 857.467 1064.47 855.467 1063.4 853.6L1060.4 847.8C1055.6 847.8 1051.4 849.533 1047.8 853C1044.2 856.333 1041.07 860.8 1038.4 866.4C1035.73 871.867 1033.4 877.8 1031.4 884.2L1028.6 893.2V944.2H1061.2ZM1144.8 953C1136.67 953 1129.33 950.733 1122.8 946.2C1116.4 941.533 1111.33 935.067 1107.6 926.8C1104 918.533 1102.2 908.933 1102.2 898C1102.2 890.8 1103 883.867 1104.6 877.2C1106.33 870.4 1108.93 864.267 1112.4 858.8C1116 853.333 1120.4 849 1125.6 845.8C1130.93 842.6 1137.2 841 1144.4 841C1154.93 841 1163.4 844.6 1169.8 851.8C1176.33 859 1179.6 869.067 1179.6 882C1179.6 883.733 1179.53 885.333 1179.4 886.8C1179.4 888.267 1179.33 889.4 1179.2 890.2H1117V907C1117 915.4 1118.47 922.4 1121.4 928C1124.33 933.467 1128.2 937.6 1133 940.4C1137.8 943.2 1142.87 944.6 1148.2 944.6C1153.27 944.6 1157.53 943.533 1161 941.4C1164.6 939.267 1167.47 936.667 1169.6 933.6C1171.87 930.4 1173.4 927.4 1174.2 924.6L1178.4 926C1177.6 929.867 1175.8 933.933 1173 938.2C1170.2 942.333 1166.47 945.867 1161.8 948.8C1157.13 951.6 1151.47 953 1144.8 953ZM1144 847.4C1138.4 847.4 1133.6 849.067 1129.6 852.4C1125.73 855.6 1122.73 860.067 1120.6 865.8C1118.47 871.4 1117.27 877.8 1117 885H1157C1158.47 885 1159.87 884.867 1161.2 884.6C1162.67 884.2 1163.87 883.2 1164.8 881.6C1165.87 879.867 1166.4 877 1166.4 873C1166.4 864.733 1164.27 858.4 1160 854C1155.73 849.6 1150.4 847.4 1144 847.4ZM1224 951L1206.8 849.8H1195.4V843H1229.4V849.8H1219.2L1231 919.8L1242.8 849.8H1234.8V843H1256.8V849.8H1249.6L1261.4 919.8L1273.2 849.8H1263.2V843H1285.8V849.8H1278.6L1261.4 951H1255.2L1242.6 883L1231 951H1224ZM1392.8 951V944.2H1409.6V813.4H1389.2V808.6L1409.6 806L1418.4 801H1423.2V857.2H1423.8C1424.87 854.8 1426.53 852.4 1428.8 850C1431.07 847.467 1433.93 845.333 1437.4 843.6C1440.87 841.867 1444.87 841 1449.4 841C1455.93 841 1461.07 843.067 1464.8 847.2C1468.67 851.2 1470.6 857.133 1470.6 865V944.2H1487.4V951H1457V866.2C1457 855.533 1452.33 850.2 1443 850.2C1439.27 850.2 1436 851.067 1433.2 852.8C1430.53 854.533 1428.33 856.733 1426.6 859.4C1425 861.933 1423.87 864.4 1423.2 866.8V944.2H1435V944.4H1443V951H1392.8ZM1544.8 953C1536.67 953 1529.33 950.733 1522.8 946.2C1516.4 941.533 1511.33 935.067 1507.6 926.8C1504 918.533 1502.2 908.933 1502.2 898C1502.2 890.8 1503 883.867 1504.6 877.2C1506.33 870.4 1508.93 864.267 1512.4 858.8C1516 853.333 1520.4 849 1525.6 845.8C1530.93 842.6 1537.2 841 1544.4 841C1554.93 841 1563.4 844.6 1569.8 851.8C1576.33 859 1579.6 869.067 1579.6 882C1579.6 883.733 1579.53 885.333 1579.4 886.8C1579.4 888.267 1579.33 889.4 1579.2 890.2H1517V907C1517 915.4 1518.47 922.4 1521.4 928C1524.33 933.467 1528.2 937.6 1533 940.4C1537.8 943.2 1542.87 944.6 1548.2 944.6C1553.27 944.6 1557.53 943.533 1561 941.4C1564.6 939.267 1567.47 936.667 1569.6 933.6C1571.87 930.4 1573.4 927.4 1574.2 924.6L1578.4 926C1577.6 929.867 1575.8 933.933 1573 938.2C1570.2 942.333 1566.47 945.867 1561.8 948.8C1557.13 951.6 1551.47 953 1544.8 953ZM1544 847.4C1538.4 847.4 1533.6 849.067 1529.6 852.4C1525.73 855.6 1522.73 860.067 1520.6 865.8C1518.47 871.4 1517.27 877.8 1517 885H1557C1558.47 885 1559.87 884.867 1561.2 884.6C1562.67 884.2 1563.87 883.2 1564.8 881.6C1565.87 879.867 1566.4 877 1566.4 873C1566.4 864.733 1564.27 858.4 1560 854C1555.73 849.6 1550.4 847.4 1544 847.4ZM1626.8 953C1619.47 953 1613.67 950.8 1609.4 946.4C1605.27 941.867 1603.2 936.4 1603.2 930C1603.2 924 1604.67 919.067 1607.6 915.2C1610.67 911.2 1614.47 907.867 1619 905.2C1623.53 902.533 1628 900.2 1632.4 898.2L1652.8 888.8V869.4C1652.8 862.867 1650.73 857.733 1646.6 854C1642.47 850.267 1637.27 848.4 1631 848.4C1625.27 848.4 1620.53 849.8 1616.8 852.6C1613.07 855.4 1610.47 858.133 1609 860.8C1612.07 864 1614.33 866.533 1615.8 868.4C1617.4 870.267 1618.2 872.467 1618.2 875C1618.2 877.267 1617.4 879.4 1615.8 881.4C1614.33 883.4 1612.07 884.4 1609 884.4C1606.07 884.4 1603.73 883.4 1602 881.4C1600.4 879.267 1599.6 876.667 1599.6 873.6C1599.6 870.533 1600.33 867.2 1601.8 863.6C1603.4 859.867 1605.73 856.267 1608.8 852.8C1612 849.333 1616 846.533 1620.8 844.4C1625.6 842.133 1631.27 841 1637.8 841C1644.87 841 1650.47 842.4 1654.6 845.2C1658.87 848 1661.87 851.6 1663.6 856C1665.47 860.267 1666.4 864.733 1666.4 869.4V934.2C1666.4 939.8 1668.33 942.6 1672.2 942.6C1674.73 942.6 1676.73 941.6 1678.2 939.6C1679.67 937.467 1680.67 935.4 1681.2 933.4L1684.8 934.6C1684.4 937.267 1683.47 940.067 1682 943C1680.53 945.8 1678.53 948.2 1676 950.2C1673.6 952.067 1670.6 953 1667 953C1663 953 1659.6 951.667 1656.8 949C1654.13 946.333 1652.8 942.2 1652.8 936.6C1651.73 939 1650 941.467 1647.6 944C1645.2 946.533 1642.27 948.667 1638.8 950.4C1635.33 952.133 1631.33 953 1626.8 953ZM1615.4 925.4C1615.4 930.6 1617 935.067 1620.2 938.8C1623.4 942.4 1627.67 944.2 1633 944.2C1636.47 944.2 1639.53 943.467 1642.2 942C1645 940.4 1647.27 938.533 1649 936.4C1650.87 934.267 1652.13 932.2 1652.8 930.2V893.6L1633.8 903C1630.73 904.467 1627.8 906.133 1625 908C1622.2 909.733 1619.87 911.933 1618 914.6C1616.27 917.267 1615.4 920.867 1615.4 925.4ZM1735.2 951L1701.2 849.8H1685.8V843H1735V849.8H1715L1742.8 933.2L1770.6 849.8H1756.8V843H1790.4V849.8H1777L1743.2 951H1735.2ZM1844.8 953C1836.67 953 1829.33 950.733 1822.8 946.2C1816.4 941.533 1811.33 935.067 1807.6 926.8C1804 918.533 1802.2 908.933 1802.2 898C1802.2 890.8 1803 883.867 1804.6 877.2C1806.33 870.4 1808.93 864.267 1812.4 858.8C1816 853.333 1820.4 849 1825.6 845.8C1830.93 842.6 1837.2 841 1844.4 841C1854.93 841 1863.4 844.6 1869.8 851.8C1876.33 859 1879.6 869.067 1879.6 882C1879.6 883.733 1879.53 885.333 1879.4 886.8C1879.4 888.267 1879.33 889.4 1879.2 890.2H1817V907C1817 915.4 1818.47 922.4 1821.4 928C1824.33 933.467 1828.2 937.6 1833 940.4C1837.8 943.2 1842.87 944.6 1848.2 944.6C1853.27 944.6 1857.53 943.533 1861 941.4C1864.6 939.267 1867.47 936.667 1869.6 933.6C1871.87 930.4 1873.4 927.4 1874.2 924.6L1878.4 926C1877.6 929.867 1875.8 933.933 1873 938.2C1870.2 942.333 1866.47 945.867 1861.8 948.8C1857.13 951.6 1851.47 953 1844.8 953ZM1844 847.4C1838.4 847.4 1833.6 849.067 1829.6 852.4C1825.73 855.6 1822.73 860.067 1820.6 865.8C1818.47 871.4 1817.27 877.8 1817 885H1857C1858.47 885 1859.87 884.867 1861.2 884.6C1862.67 884.2 1863.87 883.2 1864.8 881.6C1865.87 879.867 1866.4 877 1866.4 873C1866.4 864.733 1864.27 858.4 1860 854C1855.73 849.6 1850.4 847.4 1844 847.4ZM1892.8 951V945.4L1909.6 943.8V853.4H1889.2V848.6L1909.6 846L1918.4 841H1923.2V857.2H1923.8C1924.87 854.8 1926.53 852.4 1928.8 850C1931.07 847.467 1933.93 845.333 1937.4 843.6C1940.87 841.867 1944.87 841 1949.4 841C1955.93 841 1961.07 843.067 1964.8 847.2C1968.67 851.2 1970.6 857.133 1970.6 865V944.2H1987.4V951H1957V866.2C1957 855.533 1952.33 850.2 1943 850.2C1939.27 850.2 1936 851.067 1933.2 852.8C1930.53 854.533 1928.33 856.733 1926.6 859.4C1925 861.933 1923.87 864.4 1923.2 866.8V943.8L1943 945.4V951H1892.8Z" fill="white"/>
</g>
<defs>
<clipPath id="clip0_213_2">
<rect width="2880" height="1752" fill="white"/>
</clipPath>
</defs>
</svg>
