<svg width="2880" height="1752" viewBox="0 0 2880 1752" fill="none" xmlns="http://www.w3.org/2000/svg">
<g clip-path="url(#clip0_58_16)">
<path d="M1081.7 901.246C1081.96 910.947 1083.78 917.652 1087.17 921.363C1090.62 925.009 1095.53 926.832 1101.91 926.832C1104.06 926.832 1106.15 926.539 1108.16 925.953C1110.25 925.302 1112.17 924.293 1113.93 922.926C1115.68 921.493 1117.18 919.638 1118.42 917.359C1119.72 915.016 1120.57 912.086 1120.96 908.57H1156.5C1155.2 916.969 1152.79 924 1149.28 929.664C1145.83 935.328 1141.37 939.918 1135.9 943.434C1130.43 946.884 1124.05 949.358 1116.76 950.855C1109.53 952.418 1101.46 953.199 1092.54 953.199C1083.36 953.199 1074.73 952.027 1066.66 949.684C1058.59 947.34 1051.49 943.792 1045.37 939.039C1039.32 934.221 1034.56 928.199 1031.11 920.973C1027.66 913.681 1025.94 905.022 1025.94 894.996C1025.94 885.426 1027.57 877.027 1030.82 869.801C1034.08 862.574 1038.63 856.552 1044.49 851.734C1050.42 846.852 1057.38 843.173 1065.39 840.699C1073.46 838.225 1082.32 836.988 1091.95 836.988C1103.8 836.988 1113.99 838.551 1122.52 841.676C1131.05 844.801 1138.01 849.163 1143.42 854.762C1148.82 860.361 1152.79 867.099 1155.33 874.977C1157.87 882.854 1159.08 891.611 1158.95 901.246H1081.7ZM1096.15 863.355C1091.6 863.355 1088.21 864.983 1086 868.238C1083.85 871.428 1082.42 876.734 1081.7 884.156H1110.31C1109.92 877.776 1108.55 872.73 1106.21 869.02C1103.87 865.243 1100.51 863.355 1096.15 863.355ZM1240.1 863.355C1234.5 863.355 1230.2 865.732 1227.21 870.484C1224.21 875.237 1222.71 883.147 1222.71 894.215C1222.71 905.283 1224.24 913.16 1227.3 917.848C1230.43 922.47 1235.18 924.781 1241.56 924.781C1243.39 924.781 1245.24 924.488 1247.13 923.902C1249.02 923.316 1250.71 922.47 1252.21 921.363C1253.77 920.191 1255.04 918.727 1256.02 916.969C1257.06 915.146 1257.64 913.03 1257.77 910.621H1289.32C1287.23 925.139 1281.37 935.882 1271.74 942.848C1262.17 949.749 1248.5 953.199 1230.72 953.199C1221.8 953.199 1213.47 952.027 1205.72 949.684C1197.98 947.34 1191.24 943.792 1185.51 939.039C1179.78 934.221 1175.29 928.199 1172.03 920.973C1168.78 913.681 1167.15 905.022 1167.15 894.996C1167.15 885.426 1168.78 877.027 1172.03 869.801C1175.29 862.574 1179.84 856.552 1185.7 851.734C1191.63 846.852 1198.59 843.173 1206.6 840.699C1214.67 838.225 1223.53 836.988 1233.16 836.988C1243.39 836.988 1252.01 838.258 1259.04 840.797C1266.07 843.336 1271.74 846.526 1276.04 850.367C1280.4 854.143 1283.49 858.245 1285.31 862.672C1287.2 867.034 1288.14 871.135 1288.14 874.977C1288.14 878.036 1287.69 881.031 1286.78 883.961C1285.93 886.891 1284.5 889.56 1282.48 891.969C1280.53 894.378 1278.02 896.331 1274.96 897.828C1271.9 899.26 1268.16 899.977 1263.73 899.977C1259.5 899.977 1256.05 899.391 1253.38 898.219C1250.71 896.982 1248.63 895.484 1247.13 893.727C1245.7 891.904 1244.65 890.016 1244 888.062C1243.42 886.044 1243.12 884.156 1243.12 882.398C1243.12 878.427 1244.07 875.27 1245.96 872.926C1247.85 870.582 1250.03 868.954 1252.5 868.043C1251.07 866.936 1249.6 865.895 1248.11 864.918C1246.67 863.876 1244 863.355 1240.1 863.355ZM1298.01 894.996C1298.01 885.426 1299.67 877.027 1302.99 869.801C1306.31 862.574 1311.03 856.552 1317.15 851.734C1323.33 846.852 1330.76 843.173 1339.41 840.699C1348.07 838.225 1357.74 836.988 1368.42 836.988C1379.1 836.988 1388.76 838.225 1397.42 840.699C1406.08 843.173 1413.47 846.852 1419.59 851.734C1425.71 856.552 1430.43 862.574 1433.75 869.801C1437.14 877.027 1438.83 885.426 1438.83 894.996C1438.83 904.436 1437.14 912.802 1433.75 920.094C1430.43 927.385 1425.71 933.505 1419.59 938.453C1413.47 943.336 1406.08 947.014 1397.42 949.488C1388.76 951.962 1379.1 953.199 1368.42 953.199C1357.74 953.199 1348.07 951.962 1339.41 949.488C1330.76 947.014 1323.33 943.336 1317.15 938.453C1311.03 933.505 1306.31 927.385 1302.99 920.094C1299.67 912.802 1298.01 904.436 1298.01 894.996ZM1353.57 894.996C1353.57 900.465 1353.8 905.12 1354.26 908.961C1354.78 912.737 1355.59 915.797 1356.7 918.141C1357.81 920.419 1359.3 922.112 1361.19 923.219C1363.08 924.26 1365.49 924.781 1368.42 924.781C1371.35 924.781 1373.72 924.26 1375.55 923.219C1377.43 922.112 1378.93 920.419 1380.04 918.141C1381.21 915.797 1382.02 912.737 1382.48 908.961C1382.94 905.12 1383.16 900.465 1383.16 894.996C1383.16 884.059 1382.12 876.409 1380.04 872.047C1378.02 867.62 1374.15 865.406 1368.42 865.406C1365.49 865.406 1363.08 865.927 1361.19 866.969C1359.3 867.945 1357.81 869.605 1356.7 871.949C1355.59 874.228 1354.78 877.288 1354.26 881.129C1353.8 884.905 1353.57 889.527 1353.57 894.996ZM1502.6 901.246C1502.86 910.947 1504.68 917.652 1508.07 921.363C1511.52 925.009 1516.43 926.832 1522.81 926.832C1524.96 926.832 1527.04 926.539 1529.06 925.953C1531.15 925.302 1533.07 924.293 1534.82 922.926C1536.58 921.493 1538.08 919.638 1539.32 917.359C1540.62 915.016 1541.46 912.086 1541.86 908.57H1577.4C1576.1 916.969 1573.69 924 1570.18 929.664C1566.73 935.328 1562.27 939.918 1556.8 943.434C1551.33 946.884 1544.95 949.358 1537.66 950.855C1530.43 952.418 1522.36 953.199 1513.44 953.199C1504.26 953.199 1495.63 952.027 1487.56 949.684C1479.49 947.34 1472.39 943.792 1466.27 939.039C1460.21 934.221 1455.46 928.199 1452.01 920.973C1448.56 913.681 1446.84 905.022 1446.84 894.996C1446.84 885.426 1448.46 877.027 1451.72 869.801C1454.97 862.574 1459.53 856.552 1465.39 851.734C1471.32 846.852 1478.28 843.173 1486.29 840.699C1494.36 838.225 1503.22 836.988 1512.85 836.988C1524.7 836.988 1534.89 838.551 1543.42 841.676C1551.95 844.801 1558.91 849.163 1564.32 854.762C1569.72 860.361 1573.69 867.099 1576.23 874.977C1578.77 882.854 1579.97 891.611 1579.84 901.246H1502.6ZM1517.05 863.355C1512.49 863.355 1509.11 864.983 1506.89 868.238C1504.75 871.428 1503.31 876.734 1502.6 884.156H1531.21C1530.82 877.776 1529.45 872.73 1527.11 869.02C1524.77 865.243 1521.41 863.355 1517.05 863.355ZM1650.06 841.383L1648.4 868.238H1650.06C1652.34 857.952 1656.11 850.172 1661.39 844.898C1666.73 839.625 1673.63 836.988 1682.09 836.988C1687.1 836.988 1691.4 837.802 1694.98 839.43C1698.63 840.992 1701.56 843.108 1703.77 845.777C1705.98 848.447 1707.58 851.539 1708.55 855.055C1709.53 858.505 1710.02 862.086 1710.02 865.797C1710.02 868.857 1709.56 871.884 1708.65 874.879C1707.74 877.874 1706.28 880.576 1704.26 882.984C1702.24 885.393 1699.64 887.346 1696.45 888.844C1693.26 890.276 1689.32 890.992 1684.63 890.992C1678.12 890.992 1672.98 889.332 1669.2 886.012C1665.49 882.691 1663.63 878.688 1663.63 874C1663.63 871.721 1663.89 869.801 1664.41 868.238C1664.93 866.611 1665.46 865.309 1665.98 864.332C1666.56 863.29 1666.95 862.542 1667.15 862.086C1667.34 861.63 1667.12 861.402 1666.46 861.402C1665.1 861.402 1663.6 862.965 1661.97 866.09C1660.41 869.215 1659.63 874.13 1659.63 880.836V903.199C1659.63 906.65 1660.21 909.124 1661.39 910.621C1662.62 912.053 1664.97 912.77 1668.42 912.77H1674.28V949H1592.05V912.77H1597.81C1600.48 912.77 1602.5 911.923 1603.87 910.23C1605.3 908.473 1606.02 906.389 1606.02 903.98V885.426C1606.02 882.366 1605.1 880.315 1603.28 879.273C1601.52 878.167 1599.51 877.613 1597.23 877.613H1592.05V841.383H1650.06ZM1764.8 854.957C1761.48 854.957 1758.62 855.217 1756.21 855.738C1753.87 856.194 1751.85 856.747 1750.16 857.398C1748.46 858.049 1747.06 858.798 1745.96 859.645C1744.85 860.426 1743.87 861.142 1743.03 861.793L1744 862.77C1745.24 862.118 1746.58 861.467 1748.01 860.816C1749.51 860.165 1751.39 859.84 1753.67 859.84C1757.51 859.84 1760.83 861.109 1763.63 863.648C1766.43 866.122 1767.83 870.094 1767.83 875.562C1767.83 880.771 1765.68 884.97 1761.39 888.16C1757.15 891.285 1751.46 892.848 1744.3 892.848C1737.46 892.848 1731.99 890.895 1727.89 886.988C1723.85 883.017 1721.84 877.418 1721.84 870.191C1721.84 866.22 1722.94 862.281 1725.16 858.375C1727.37 854.404 1730.79 850.855 1735.41 847.73C1740.1 844.605 1746.02 842.034 1753.18 840.016C1760.41 837.997 1769.1 836.988 1779.26 836.988C1791.37 836.988 1801.26 838.128 1808.95 840.406C1816.63 842.685 1822.58 845.615 1826.82 849.195C1831.11 852.776 1834.04 856.845 1835.61 861.402C1837.23 865.96 1838.05 870.549 1838.05 875.172V913.355C1838.05 919.28 1838.24 923.316 1838.63 925.465C1839.02 927.548 1840.49 928.59 1843.03 928.59C1845.05 928.59 1846.45 927.646 1847.23 925.758C1848.07 923.805 1848.5 920.484 1848.5 915.797V903.59H1859.63V915.992C1859.63 921.852 1859.14 927.06 1858.16 931.617C1857.19 936.109 1855.33 939.983 1852.6 943.238C1849.86 946.428 1846.15 948.837 1841.46 950.465C1836.78 952.158 1830.79 953.004 1823.5 953.004C1816.92 953.004 1811.45 952.288 1807.09 950.855C1802.79 949.488 1799.38 947.763 1796.84 945.68C1794.3 943.596 1792.47 941.448 1791.37 939.234C1790.33 936.956 1789.8 934.938 1789.8 933.18H1788.24C1787.85 935.849 1786.71 938.388 1784.82 940.797C1783 943.206 1780.43 945.354 1777.11 947.242C1773.85 949.065 1769.92 950.53 1765.29 951.637C1760.74 952.809 1755.53 953.395 1749.67 953.395C1744.07 953.395 1738.96 952.841 1734.34 951.734C1729.78 950.693 1725.87 949.033 1722.62 946.754C1719.43 944.41 1716.92 941.415 1715.1 937.77C1713.34 934.059 1712.46 929.664 1712.46 924.586C1712.46 918.336 1714.22 913.421 1717.73 909.84C1721.25 906.194 1725.68 903.329 1731.02 901.246C1736.35 899.098 1742.15 897.372 1748.4 896.07C1754.71 894.703 1760.54 893.076 1765.88 891.188C1771.22 889.299 1775.64 886.858 1779.16 883.863C1782.68 880.868 1784.43 876.637 1784.43 871.168C1784.43 866.285 1782.9 862.379 1779.84 859.449C1776.78 856.454 1771.77 854.957 1764.8 854.957ZM1784.43 897.242C1783 899.326 1781.21 901.018 1779.06 902.32C1776.91 903.557 1774.83 904.794 1772.81 906.031C1770.86 907.203 1769.13 908.635 1767.64 910.328C1766.2 911.956 1765.49 914.169 1765.49 916.969C1765.49 919.117 1766.07 921.07 1767.25 922.828C1768.42 924.521 1770.7 925.367 1774.08 925.367C1777.14 925.367 1779.62 924.195 1781.5 921.852C1783.46 919.443 1784.43 916.09 1784.43 911.793V897.242Z" fill="white"/>
</g>
<defs>
<clipPath id="clip0_58_16">
<rect width="2880" height="1752" fill="white"/>
</clipPath>
</defs>
</svg>
